<?xml version="1.0" encoding="utf-8"?>
<!-- Generator: Adobe Illustrator 16.0.0, SVG Export Plug-In . SVG Version: 6.00 Build 0)  -->
<!DOCTYPE svg PUBLIC "-//W3C//DTD SVG 1.1//EN" "http://www.w3.org/Graphics/SVG/1.1/DTD/svg11.dtd">
<svg version="1.1" id="Layer_1" xmlns="http://www.w3.org/2000/svg" xmlns:xlink="http://www.w3.org/1999/xlink" x="0px" y="0px"
	 width="100px" height="100px" viewBox="0 0 100 100" enable-background="new 0 0 100 100" xml:space="preserve">
<g opacity="0.75">
	<path fill="#5CBA47" d="M50,40.75c-6.342,0-11.5,5.159-11.5,11.5s5.158,11.5,11.5,11.5s11.5-5.159,11.5-11.5S56.342,40.75,50,40.75
		z M50,58.75c-3.584,0-6.5-2.916-6.5-6.5s2.916-6.5,6.5-6.5s6.5,2.916,6.5,6.5S53.584,58.75,50,58.75z"/>
	<path fill="#5CBA47" d="M0,0v100h100V0H0z M75,61.75c0,3.59-2.91,6.5-6.5,6.5h-37c-3.59,0-6.5-2.91-6.5-6.5v-19
		c0-3.59,2.91-6.5,6.5-6.5H39c0-3.59,2.91-6.5,6.5-6.5h9c3.59,0,6.5,2.91,6.5,6.5h7.5c3.59,0,6.5,2.91,6.5,6.5V61.75z"/>
</g>
</svg>
