<?xml version="1.0" encoding="utf-8"?>
<!-- Generator: Adobe Illustrator 16.0.0, SVG Export Plug-In . SVG Version: 6.00 Build 0)  -->
<!DOCTYPE svg PUBLIC "-//W3C//DTD SVG 1.1//EN" "http://www.w3.org/Graphics/SVG/1.1/DTD/svg11.dtd">
<svg version="1.1" id="Layer_1" xmlns="http://www.w3.org/2000/svg" xmlns:xlink="http://www.w3.org/1999/xlink" x="0px" y="0px"
	 width="1000px" height="500px" viewBox="0 0 1000 500" enable-background="new 0 0 1000 500" xml:space="preserve">
<rect fill="#5CBA47" width="1000" height="500"/>
<g>
	<path fill="#FFFFFF" d="M654.751,151.789c0,0-17.309-11.69-24.962-15.516c-7.649-3.825-21.124-7.213-24.492-6.58
		c-3.365,0.631-11.572,18.727-13.677,24.198c-2.104,5.473-2.018,13.183-2.018,13.183s-19.411,17.256-30.07,20.762
		c-2.555,0.842,0.021,14.53-1.685,17.821c-15.863,30.608-21.099,67.503-5.995,99.751c14.444,30.84,44.604,49.751,78.493,50.11
		c8.959,0.093,18.514-0.778,27.257-2.792c28.218-6.505,54.891-19.852,73.225-42.87c4.794-6.026,9.204-12.769,12.708-19.632
		c3.854-7.553,6.851-16.194,8.542-24.502c2.079-10.207,3.229-21.819,2.37-32.228c-0.68-8.243-3.444-16.534-6.264-24.258
		c0,0,4.84-27.988,1.685-41.876c-3.158-13.889-17.258-32.829-17.258-32.829s-12.625-1.052-25.464,7.365
		c-12.835,8.417-21.463,14.311-21.463,14.311s-15.15-3.579-21.253-3.789C658.329,152.208,654.751,151.789,654.751,151.789"/>
	<path fill="#5CBA47" d="M569.352,240.446c4.554-4.482,10.852-6.617,19.845-2.134c8.991,4.483,14.628,13.663,14.628,13.663
		s-5.854,6.189-11.273,8.965c-5.421,2.776-11.533,4.482-11.533,4.482s-8.848-5.335-11.666-12.166
		C566.531,246.423,569.352,240.446,569.352,240.446z"/>
	<path fill="#5CBA47" d="M581.018,265.422c0,0-1.042,0.631-0.621,2.736c0.421,2.104,1.291,2.948,1.291,2.948
		s-4.236,4.066-8.445,2.522c-4.209-1.542-6.313-6.312-6.313-6.312s1.425,6.829,3.647,8.136c3.685,2.169,8.143,1.065,8.143,1.065
		s2.847,2.774,7.242,3.87c4.396,1.097,6.047,0.295,6.047,0.295s-0.085,0.32,6.907,2.907c6.339,2.344,14.486,4.974,20.621,3.366
		c8.362-2.188,13.969-7.372,13.969-7.372s-11.021,5.83-21.403,4.006c-10.383-1.822-17.257-5.611-17.257-5.611
		s-4.31-2.462-8.135-5.754c-1.668-1.436-4.016-3.573-5.022-4.77C581.098,266.756,581.018,265.422,581.018,265.422z"/>
	<path fill="#5CBA47" d="M660.197,213.613c-4.453-4.453-7.665-6.183-11.747-5.936l-2.051,1.051
		c-0.027,0.015-0.084,0.043-0.165,0.087l-1.869,0.959c0.604-0.301,1.06-0.534,1.389-0.702c-5.263,2.876-13.078,7.054-12.178,14.142
		c0.238,1.88,1.135,3.995,2.303,5.496c2.246,2.891,5.912,4.196,9.478,4.196c9.15,0,10.882-0.744,13.851-1.98
		s5.688-5.441,5.688-5.441S664.647,218.065,660.197,213.613z M658.219,221.775c-2.228,1.236-4.949,0.719-7.915-1.496
		c-2.97-2.214-1.128-6.172-1.128-6.172c2.116-1.731,4.341-2.225,7.31,0C659.454,216.334,660.444,220.54,658.219,221.775z"/>
	<path fill="#5CBA47" d="M596.851,197.022c-2.603-2.864-6.507-3.645-10.149-2.083s-6.504,4.424-7.025,11.97
		c-0.521,7.547,3.122,12.491,3.122,12.491s2.862-0.26,8.588-6.245c5.725-5.986,7.807-11.19,7.807-11.19
		S599.451,199.884,596.851,197.022z M595.93,201.766c-0.728,3.643-3.551,5-3.571,5.009c-3.75,1.814-2.84-4.413-2.797-6.226
		c-0.114,0.332-0.104,0.692-0.1,1.039c-0.031-1.75,1.457-4.139,3.394-4.045C595.233,197.658,596.662,198.11,595.93,201.766z"/>
</g>
<g>
	<g>
		<path fill="#FFFFFF" d="M127.26,204.067v70.179c0,13.856,4.82,27.11,27.109,27.11c21.988,0,26.807-13.254,26.807-27.11v-70.179
			c0-9.036,7.229-16.265,16.265-16.265s16.265,7.229,16.265,16.265v70.179c0,29.52-11.145,56.628-59.337,56.628
			c-48.493,0-59.639-27.108-59.639-56.628v-70.179c0-9.036,7.229-16.265,16.265-16.265S127.26,195.031,127.26,204.067z"/>
		<path fill="#FFFFFF" d="M311.896,185.995c39.459,0,61.145,23.192,61.145,72.289c0,49.096-21.988,72.591-61.145,72.591
			c-15.061,0-28.313-4.819-35.542-12.952v53.313c0,9.036-7.229,16.265-16.265,16.265c-9.037,0-16.265-7.229-16.265-16.265V204.067
			c0-9.036,7.228-16.265,16.265-16.265c9.036,0,16.265,7.229,16.265,16.265C280.872,196.537,295.029,185.995,311.896,185.995z
			 M307.679,213.705c-21.084,0-32.229,15.061-32.229,44.879c0,29.519,11.145,44.579,32.229,44.579
			c21.085,0,32.229-15.061,32.229-44.579C339.908,228.766,328.764,213.705,307.679,213.705z"/>
		<path fill="#FFFFFF" d="M485.088,198.043v-69.278c0-9.035,7.228-16.265,16.264-16.265s16.266,7.23,16.266,16.265v141.869
			c0,40.06-25.903,60.24-62.349,60.24c-40.662,0-64.458-23.192-64.458-72.29c0-49.096,23.192-72.589,61.145-72.589
			C466.414,185.995,479.064,192.019,485.088,198.043z M485.088,229.067c0,0-11.748-15.362-29.819-15.362
			c-20.482,0-32.229,15.061-32.229,44.879c0,29.519,11.445,44.579,32.229,44.579c17.47,0,29.819-11.747,29.819-32.529V229.067z"/>
		<path fill="#FFFFFF" d="M778.466,258.283c0-49.096,23.792-72.289,64.456-72.289c36.445,0,62.349,20.18,62.349,60.24v76.205
			c0,41.567-20.483,65.061-65.061,65.061c-24.396,0-42.469-7.53-52.709-19.879c-1.505-1.808-3.012-4.818-3.012-8.736
			c0-7.831,6.624-14.457,14.457-14.457c3.615,0,6.024,1.205,9.639,3.615c7.53,5.42,17.47,11.746,31.625,11.746
			c21.388,0,32.229-11.145,32.229-29.517v-11.447c-6.023,6.024-18.372,12.049-32.829,12.049
			C801.655,330.874,778.466,307.379,778.466,258.283z M872.74,246.235c0-20.783-12.35-32.53-29.818-32.53
			c-20.784,0-32.229,15.061-32.229,44.578c0,29.819,11.747,44.88,32.229,44.88c18.071,0,29.818-15.361,29.818-15.361V246.235z"/>
	</g>
</g>
</svg>
