<?xml version="1.0" encoding="utf-8"?>
<!-- Generator: Adobe Illustrator 16.0.0, SVG Export Plug-In . SVG Version: 6.00 Build 0)  -->
<!DOCTYPE svg PUBLIC "-//W3C//DTD SVG 1.1//EN" "http://www.w3.org/Graphics/SVG/1.1/DTD/svg11.dtd">
<svg version="1.1" id="Layer_1" xmlns="http://www.w3.org/2000/svg" xmlns:xlink="http://www.w3.org/1999/xlink" x="0px" y="0px"
	 width="200px" height="200px" viewBox="0 0 200 200" enable-background="new 0 0 200 200" xml:space="preserve">
<g>
	<path d="M116.321,87.665c-0.023-2.291-1.885-4.145-4.186-4.145c-2.298,0-4.159,1.852-4.184,4.145h-0.017V98.91
		c-0.004,6.346-2.562,12.053-6.72,16.217c-4.162,4.156-9.868,6.715-16.215,6.715c-6.346,0-12.053-2.559-16.218-6.715
		c-4.153-4.164-6.711-9.871-6.715-16.217V87.665h-0.021c-0.022-2.291-1.885-4.145-4.185-4.145c-2.297,0-4.161,1.852-4.184,4.145
		v0.004c0,0.014-0.004,0.025-0.004,0.039h0.004L53.676,98.91c0.004,15.879,11.812,28.984,27.131,31.038v11.66H67.061v0.016
		c-2.306,0.008-4.174,1.879-4.174,4.188s1.869,4.182,4.174,4.187V150h35.886v-0.004c2.297-0.018,4.152-1.882,4.152-4.186
		c0-2.303-1.855-4.167-4.152-4.185v-0.02H89.2v-11.659c15.312-2.055,27.125-15.158,27.125-31.038V87.665H116.321z"/>
	<path d="M85.002,115.721c9.308,0,16.855-7.544,16.855-16.852V66.856C101.857,57.547,94.31,50,85.002,50
		c-9.31,0-16.855,7.546-16.855,16.855v32.014C68.147,108.178,75.693,115.721,85.002,115.721z"/>
</g>
</svg>
