<?xml version="1.0" encoding="utf-8"?>
<!-- Generator: Adobe Illustrator 16.0.0, SVG Export Plug-In . SVG Version: 6.00 Build 0)  -->
<!DOCTYPE svg PUBLIC "-//W3C//DTD SVG 1.1//EN" "http://www.w3.org/Graphics/SVG/1.1/DTD/svg11.dtd">
<svg version="1.1" id="Layer_1" xmlns="http://www.w3.org/2000/svg" xmlns:xlink="http://www.w3.org/1999/xlink" x="0px" y="0px"
	 width="200px" height="200px" viewBox="0 0 200 200" enable-background="new 0 0 200 200" xml:space="preserve">
<path fill="#CCCCCC" d="M143.736,58.686c-15.548-16.951-33.673-3.866-33.673-3.866l-60.147,59.733L49.818,150h35.349l58.569-58.668
	C143.736,91.332,158.237,74.496,143.736,58.686z M79.858,137.501H62.184v-17.772c0,0,9.512-8.111,17.674,0
	S79.858,137.501,79.858,137.501z M132.89,83.611c0,0-5.983-2.991-9.615-6.41c-3.632-3.418-7.533-11.033-7.533-11.033
	s9.669-8.409,17.675,0C141.421,74.577,132.89,83.611,132.89,83.611z"/>
<rect x="39.656" y="37.5" display="none" fill="#CCCCCC" width="120.689" height="30.172"/>
<rect x="39.656" y="132.327" display="none" fill="#CCCCCC" width="120.689" height="30.173"/>
<rect x="39.656" y="84.914" display="none" fill="#CCCCCC" width="120.689" height="30.172"/>
</svg>
