<?xml version="1.0" encoding="utf-8"?>
<!-- Generator: Adobe Illustrator 16.0.0, SVG Export Plug-In . SVG Version: 6.00 Build 0)  -->
<!DOCTYPE svg PUBLIC "-//W3C//DTD SVG 1.1//EN" "http://www.w3.org/Graphics/SVG/1.1/DTD/svg11.dtd">
<svg version="1.1" id="Layer_1" xmlns="http://www.w3.org/2000/svg" xmlns:xlink="http://www.w3.org/1999/xlink" x="0px" y="0px"
	 width="100px" height="100px" viewBox="0 0 100 100" enable-background="new 0 0 100 100" xml:space="preserve">
<g display="none" opacity="0.75">
	<path display="inline" fill="#5CBA47" d="M50,40.75c-6.342,0-11.5,5.159-11.5,11.5s5.158,11.5,11.5,11.5s11.5-5.159,11.5-11.5
		S56.342,40.75,50,40.75z M50,58.75c-3.584,0-6.5-2.916-6.5-6.5s2.916-6.5,6.5-6.5s6.5,2.916,6.5,6.5S53.584,58.75,50,58.75z"/>
	<path display="inline" fill="#5CBA47" d="M0,0v100h100V0H0z M75,61.75c0,3.59-2.91,6.5-6.5,6.5h-37c-3.59,0-6.5-2.91-6.5-6.5v-19
		c0-3.59,2.91-6.5,6.5-6.5H39c0-3.59,2.91-6.5,6.5-6.5h9c3.59,0,6.5,2.91,6.5,6.5h7.5c3.59,0,6.5,2.91,6.5,6.5V61.75z"/>
</g>
<path display="none" opacity="0.75" fill="#5CBA47" d="M0,0v100h100V0H0z M69.64,50.197c-0.228,1.4-0.818,2.615-2.095,3.372
	l-27.43,15.959C39.366,69.826,38.941,70,38.271,70c-2.16,0-3.911-1.751-3.911-3.911V33.911c0-2.16,1.75-3.911,3.91-3.911
	c0.671,0,1.096,0.175,1.844,0.473l27.43,15.96c1.276,0.756,1.867,1.971,2.095,3.371V50.197z"/>
<path opacity="0.75" fill="#E94342" d="M0,0v100h100V0H0z M68.5,64.215c0,2.366-1.919,4.285-4.285,4.285h-28.43
	c-2.367,0-4.285-1.919-4.285-4.285v-28.43c0-2.366,1.918-4.285,4.285-4.285h28.43c2.366,0,4.285,1.918,4.285,4.285V64.215z"/>
</svg>
