<?xml version="1.0" encoding="utf-8"?>
<!-- Generator: Adobe Illustrator 16.0.0, SVG Export Plug-In . SVG Version: 6.00 Build 0)  -->
<!DOCTYPE svg PUBLIC "-//W3C//DTD SVG 1.1//EN" "http://www.w3.org/Graphics/SVG/1.1/DTD/svg11.dtd">
<svg version="1.1" id="Layer_1" xmlns="http://www.w3.org/2000/svg" xmlns:xlink="http://www.w3.org/1999/xlink" x="0px" y="0px"
	 width="275px" height="92px" viewBox="0 0 275 92" enable-background="new 0 0 275 92" xml:space="preserve">
<circle opacity="0.75" fill="#5CBA47" cx="137.5" cy="46" r="30"/>
<path fill="#FFFFFF" d="M139.615,28.875c-0.06-0.061-0.119-0.116-0.181-0.166c-0.032-0.027-0.068-0.053-0.102-0.079
	c-0.017-0.014-0.033-0.025-0.05-0.038c-0.498-0.371-1.115-0.592-1.784-0.592c-0.667,0-1.283,0.221-1.781,0.59
	c-0.023,0.017-0.044,0.033-0.067,0.051c-0.026,0.022-0.056,0.042-0.082,0.066c-0.065,0.052-0.128,0.107-0.19,0.171l-13.327,13.327
	c-1.171,1.171-1.171,3.07,0,4.242c1.172,1.173,3.07,1.173,4.243,0l8.205-8.204l0.002,22.756c0,1.658,1.343,3.001,2.998,3.001
	c1.656,0,3-1.343,3-3.001V38.243l8.206,8.204c1.172,1.173,3.071,1.173,4.243,0c1.172-1.171,1.171-3.07,0-4.242L139.622,28.88
	C139.621,28.88,139.619,28.877,139.615,28.875z"/>
</svg>
