<?xml version="1.0" encoding="utf-8"?>
<!-- Generator: Adobe Illustrator 16.0.0, SVG Export Plug-In . SVG Version: 6.00 Build 0)  -->
<!DOCTYPE svg PUBLIC "-//W3C//DTD SVG 1.1//EN" "http://www.w3.org/Graphics/SVG/1.1/DTD/svg11.dtd">
<svg version="1.1" id="Layer_1" xmlns="http://www.w3.org/2000/svg" xmlns:xlink="http://www.w3.org/1999/xlink" x="0px" y="0px"
	 width="600px" height="200px" viewBox="0 0 600 200" enable-background="new 0 0 600 200" xml:space="preserve">
<g>
	<path fill="#5CB947" d="M169.203,84.701v27.959c0,5.52,1.92,10.799,10.799,10.799c8.76,0,10.68-5.279,10.68-10.799V84.701
		c0-3.6,2.88-6.479,6.48-6.479c3.6,0,6.479,2.88,6.479,6.479v27.959c0,11.759-4.44,22.559-23.639,22.559
		c-19.319,0-23.759-10.8-23.759-22.559V84.701c0-3.6,2.88-6.479,6.479-6.479C166.323,78.222,169.203,81.102,169.203,84.701z"/>
	<path fill="#5CB947" d="M242.76,77.501c15.72,0,24.358,9.24,24.358,28.799c0,19.56-8.759,28.919-24.358,28.919
		c-6,0-11.28-1.92-14.16-5.16v21.239c0,3.601-2.88,6.479-6.479,6.479c-3.6,0-6.48-2.879-6.48-6.479V84.701
		c0-3.6,2.88-6.479,6.48-6.479c3.6,0,6.479,2.88,6.479,6.479C230.401,81.701,236.041,77.501,242.76,77.501z M241.08,88.541
		c-8.399,0-12.839,6-12.839,17.879c0,11.76,4.44,17.76,12.839,17.76c8.4,0,12.839-6,12.839-17.76
		C253.919,94.541,249.48,88.541,241.08,88.541z"/>
	<path fill="#5CB947" d="M311.759,82.301V54.702c0-3.6,2.879-6.479,6.479-6.479c3.602,0,6.48,2.88,6.48,6.479v56.518
		c0,15.96-10.32,23.999-24.838,23.999c-16.2,0-25.68-9.24-25.68-28.799s9.24-28.919,24.359-28.919
		C304.318,77.501,309.358,79.901,311.759,82.301z M311.759,94.66c0,0-4.68-6.119-11.879-6.119c-8.16,0-12.84,6-12.84,17.879
		c0,11.76,4.56,17.76,12.84,17.76c6.958,0,11.879-4.68,11.879-12.96V94.66z"/>
	<path fill="#5CB947" d="M359.878,135.219c-16.199,0-26.279-9.24-26.279-28.799c0-19.679,10.08-28.919,26.279-28.919
		s26.279,9.24,26.279,28.919C386.157,125.979,376.077,135.219,359.878,135.219z M359.878,88.541c-8.639,0-13.199,6-13.199,17.879
		c0,11.76,4.561,17.76,13.199,17.76c8.641,0,13.199-6,13.199-17.76C373.077,94.541,368.519,88.541,359.878,88.541z"/>
	<path fill="#5CB947" d="M393.237,106.3c0-19.559,9.48-28.799,25.68-28.799c14.52,0,24.84,8.04,24.84,23.999v30.359
		c0,16.559-8.16,25.918-25.92,25.918c-9.719,0-16.92-3-21-7.92c-0.6-0.719-1.199-1.92-1.199-3.479c0-3.121,2.641-5.76,5.76-5.76
		c1.439,0,2.4,0.479,3.84,1.439c3,2.16,6.959,4.68,12.6,4.68c8.52,0,12.84-4.439,12.84-11.76v-4.56c-2.4,2.399-7.32,4.8-13.08,4.8
		C402.478,135.219,393.237,125.859,393.237,106.3z M430.796,101.5c0-8.279-4.92-12.959-11.879-12.959c-8.279,0-12.84,6-12.84,17.759
		c0,11.88,4.68,17.88,12.84,17.88c7.199,0,11.879-6.121,11.879-6.121V101.5z"/>
</g>
</svg>
