<?xml version="1.0" encoding="utf-8"?>
<!-- Generator: Adobe Illustrator 16.0.0, SVG Export Plug-In . SVG Version: 6.00 Build 0)  -->
<!DOCTYPE svg PUBLIC "-//W3C//DTD SVG 1.1//EN" "http://www.w3.org/Graphics/SVG/1.1/DTD/svg11.dtd">
<svg version="1.1" id="Layer_1" xmlns="http://www.w3.org/2000/svg" xmlns:xlink="http://www.w3.org/1999/xlink" x="0px" y="0px"
	 width="200px" height="200px" viewBox="0 0 200 200" enable-background="new 0 0 200 200" xml:space="preserve">
<g display="none">
	<polygon display="inline" fill="#AAAAAA" points="133.75,111.25 133.75,133.75 66.25,133.75 66.25,111.25 55,111.25 55,145 
		145,145 145,111.25 	"/>
	<polygon display="inline" fill="#AAAAAA" points="88.75,122.5 111.25,122.5 111.25,88.75 122.5,88.75 100,55 77.5,88.75 
		88.75,88.75 	"/>
</g>
<polygon fill="#5CBA47" points="141.121,87.084 135.596,90.296 135.596,67.5 36.547,67.5 36.547,132.5 135.596,132.5 
	135.596,109.706 141.121,112.916 163.453,125.829 163.453,100 163.453,74.17 "/>
<g display="none">
	<path display="inline" fill="#5CBA47" d="M143.246,65.195h-17.533c0-8.392-6.803-15.195-15.193-15.195H89.48
		c-8.392,0-15.195,6.803-15.195,15.195H56.753c-8.392,0-15.195,6.803-15.195,15.195v44.416c0,8.392,6.803,15.194,15.195,15.194
		h86.493c8.393,0,15.195-6.803,15.195-15.194V80.39C158.441,71.998,151.639,65.195,143.246,65.195z M100,129.48
		c-14.825,0-26.883-12.061-26.883-26.883c0-14.823,12.059-26.883,26.883-26.883s26.883,12.06,26.883,26.883
		C126.883,117.42,114.824,129.48,100,129.48z"/>
	<path display="inline" fill="#5CBA47" d="M100,87.403c-8.377,0-15.195,6.816-15.195,15.195c0,8.378,6.817,15.194,15.195,15.194
		s15.194-6.816,15.194-15.194C115.193,94.219,108.377,87.403,100,87.403z"/>
</g>
</svg>
